<?xml version="1.0" standalone="no"?>
<!DOCTYPE svg PUBLIC "-//W3C//DTD SVG 20010904//EN"
 "http://www.w3.org/TR/2001/REC-SVG-20010904/DTD/svg10.dtd">
<svg version="1.0" xmlns="http://www.w3.org/2000/svg"
 width="1207.000000pt" height="1280.000000pt" viewBox="0 0 1207.000000 1280.000000"
 preserveAspectRatio="xMidYMid meet">
<metadata>
Created by potrace 1.15, written by Peter Selinger 2001-2017
</metadata>
<g transform="translate(0.000000,1280.000000) scale(0.100000,-0.100000)"
fill="#000000" stroke="none">
<path d="M9753 12779 c-146 -46 -402 -268 -696 -603 -73 -83 -154 -173 -181
-201 -27 -27 -288 -306 -580 -620 -291 -313 -798 -849 -1126 -1190 -327 -341
-994 -1034 -1480 -1540 -487 -506 -1454 -1512 -2148 -2235 -695 -723 -1283
-1333 -1306 -1355 -39 -37 -273 -280 -670 -698 l-159 -167 -88 -248 c-98 -276
-550 -1550 -811 -2287 -93 -264 -214 -605 -269 -759 l-99 -279 -54 -52 c-69
-66 -95 -139 -78 -220 6 -27 16 -75 22 -104 16 -74 41 -120 89 -164 45 -41
107 -61 166 -55 22 3 166 55 320 116 257 101 425 167 1300 512 830 327 981
386 1245 490 157 62 404 159 550 216 146 57 285 114 309 126 36 18 88 77 284
321 202 253 280 341 510 575 1852 1888 5413 5537 5430 5564 16 27 711 774
1003 1080 56 58 120 132 141 165 22 32 80 114 129 183 273 377 462 698 528
895 49 144 46 341 -10 593 -37 168 -95 327 -184 508 -327 665 -944 1219 -1551
1393 -210 60 -422 76 -536 40z"/>
</g>
</svg>
